<svg width="140" height="37" viewBox="0 0 140 37" fill="none" xmlns="http://www.w3.org/2000/svg">
<g clip-path="url(#clip0_412_691)">
<path d="M25.4296 9.86943C24.7933 9.20404 23.8952 8.82227 22.9753 8.82227C22.7862 8.82227 22.5899 8.83681 22.3972 8.86953C16.4596 9.88397 12.4091 12.8328 10.053 15.1271C9.18036 15.9779 8.70041 17.1123 8.69678 18.3231C8.69678 19.4357 9.11128 20.5047 9.86393 21.3337L14.6889 26.6531C15.5324 27.584 16.7359 28.1184 17.9904 28.1184C18.2194 28.1184 18.4558 28.1003 18.6885 28.0639C20.1865 27.8276 21.4518 26.8604 22.0772 25.4787C23.3971 22.559 25.2042 18.0068 26.2949 12.8982C26.3459 12.6619 26.3713 12.4183 26.3713 12.1746C26.3713 11.3166 26.0368 10.4948 25.4332 9.86579L25.4296 9.86943ZM15.5615 25.8641L10.7329 20.5447C10.1766 19.9338 9.87484 19.1485 9.87484 18.3304C9.87484 17.4396 10.2312 16.6033 10.8747 15.9779C13.1072 13.7999 16.9541 11.0002 22.5935 10.0367C22.7208 10.0149 22.8517 10.004 22.9753 10.004C23.5789 10.004 24.1643 10.2548 24.5824 10.6875C24.9751 11.0984 25.1932 11.6292 25.1932 12.1856C25.1932 12.3419 25.1751 12.5019 25.1423 12.6582C24.0734 17.6577 22.3026 22.13 21.0046 24.9988C20.5428 26.0205 19.612 26.7331 18.5067 26.904C17.4086 27.0749 16.2996 26.6786 15.5652 25.8641H15.5615Z" fill="url(#paint0_linear_412_691)"/>
<path d="M32.5748 4.17509C30.4296 1.52082 27.2444 0.000976562 23.8375 0.000976562C23.2121 0.000976562 22.5686 0.0555163 21.925 0.16096C13.2095 1.65535 7.25016 5.99308 3.78143 9.37091C1.34896 11.7488 0.00364454 14.9158 8.54938e-06 18.2936C-0.00362744 21.3951 1.15262 24.3803 3.25422 26.6964L8.83545 32.8448C11.2316 35.4846 14.5076 36.939 18.0599 36.939C22.9613 36.939 27.4335 34.0556 29.4515 29.5906C31.1313 25.8783 33.422 20.0825 34.8182 13.5596C34.9818 12.7851 35.0655 11.9997 35.0655 11.218C35.0655 8.66917 34.1855 6.16761 32.5748 4.17509ZM18.0599 35.6009C14.8894 35.6009 11.966 34.3029 9.82444 31.9504L4.2432 25.7983C2.36704 23.7294 1.33442 21.0679 1.33805 18.2936C1.33805 15.283 2.54156 12.4542 4.71952 10.3308C8.04645 7.08388 13.7695 2.9134 22.1541 1.48082C22.7104 1.38629 23.2776 1.33538 23.8375 1.33538C26.8372 1.33538 29.6442 2.67706 31.5313 5.015C32.9493 6.76391 33.731 8.96732 33.7274 11.2144C33.7274 11.8979 33.6547 12.5924 33.5056 13.276C32.1312 19.7044 29.8805 25.3947 28.2334 29.0343C26.43 33.023 22.4377 35.5973 18.0599 35.5973V35.6009Z" fill="url(#paint1_linear_412_691)"/>
<path d="M29.1755 7.02195C27.7938 5.31304 25.7431 4.33496 23.5542 4.33496C23.1434 4.33496 22.7289 4.37132 22.318 4.4404C14.8788 5.713 9.79932 9.4108 6.8469 12.2905C5.20343 13.894 4.29807 16.0319 4.29443 18.3081C4.29443 20.4024 5.07253 22.4131 6.49057 23.9766L11.8173 29.8487C13.4353 31.6303 15.6423 32.6084 18.0385 32.6084C21.3472 32.6084 24.3651 30.6595 25.7286 27.6489C27.2593 24.2674 29.3464 18.988 30.6153 13.0504C30.7208 12.5523 30.7753 12.0469 30.7753 11.5451C30.7753 9.90529 30.2117 8.29819 29.1755 7.02195ZM18.0348 31.3322C16.0059 31.3322 14.1298 30.4995 12.7626 28.9906L7.43229 23.1185C6.22878 21.7913 5.56703 20.0824 5.57066 18.3081C5.57066 16.3773 6.34149 14.563 7.73771 13.2031C10.5592 10.4507 15.4169 6.91651 22.5325 5.69846C22.867 5.64028 23.2125 5.61119 23.5506 5.61119C25.3541 5.61119 27.0412 6.41838 28.1792 7.82551C29.03 8.87994 29.4991 10.1998 29.4955 11.5451C29.4955 11.956 29.4518 12.3741 29.3646 12.7814C28.1174 18.6171 26.0631 23.7984 24.5614 27.118C23.4052 29.6778 20.8418 31.3285 18.0348 31.3285V31.3322Z" fill="url(#paint2_linear_412_691)"/>
<path d="M49.4088 4.85449C50.7832 4.85449 52.0121 5.70168 52.503 6.98518L62.2802 32.5898H57.597L55.9899 28.2521C55.4881 26.8958 54.1937 25.9941 52.743 25.9941H43.6276L41.1842 32.5898H36.541L46.3182 6.98518C46.809 5.70168 48.038 4.85449 49.4088 4.85449ZM53.8483 22.1618L49.856 11.1666C49.6524 10.5957 49.4924 10.0685 49.4088 9.70126H49.3288C49.2488 10.0649 49.1252 10.5993 48.9215 11.1666L44.9292 22.1618H53.8519H53.8483Z" fill="#020202"/>
<path d="M62.6914 24.6054V13.4902H66.9673V24.2855C66.9673 27.2997 68.3126 29.0922 71.0796 29.0922C73.8502 29.1322 75.1919 27.2997 75.1919 24.3255V13.4939H79.4678V24.6527C79.4678 29.4558 76.17 33.0409 71.0796 33.0009C65.8293 33.0009 62.6914 29.4995 62.6914 24.6127V24.6054Z" fill="#020202"/>
<path d="M81.3188 23.0599C81.3188 17.155 85.3112 13.0827 90.1979 13.0827C92.2523 13.0827 94.2775 13.8863 95.7355 15.2643C95.9973 15.5079 96.4264 15.3116 96.4264 14.9553V4.85449H100.742V22.9363C100.742 29.2083 96.2628 32.9934 91.0524 32.9934C85.5548 32.9934 81.3188 28.7611 81.3188 23.0562M96.47 23.0599C96.47 19.1112 93.743 16.9114 90.9324 16.9114C87.8782 16.9114 85.5948 19.3984 85.5948 23.0599C85.5948 26.7213 87.9982 29.1683 91.0524 29.1683C93.903 29.1683 96.4664 26.9286 96.4664 23.0599" fill="#020202"/>
<path d="M110.29 13.0788C111.144 13.0788 111.835 13.1988 112.57 13.3624V17.2748C111.835 17.1948 111.388 17.2311 111.104 17.2311C108.581 17.2311 107.116 18.3728 107.116 21.5907V32.5859H102.84V20.8562C102.84 16.1331 105.69 13.0752 110.294 13.0752" fill="#020202"/>
<path d="M113.668 7.38129C113.668 5.83236 114.886 4.6543 116.439 4.6543C117.991 4.6543 119.166 5.83599 119.166 7.38129C119.166 8.92658 117.944 10.0683 116.439 10.0683C114.933 10.0683 113.668 8.88658 113.668 7.38129ZM114.275 13.4861H118.551V32.5859H114.275V13.4861Z" fill="#020202"/>
<path d="M120.453 23.0611C120.453 17.3599 124.686 13.084 130.267 13.084C135.848 13.084 140 16.7491 140 23.0611V32.591H136.212L135.979 30.5113C135.946 30.2131 135.579 30.1113 135.39 30.3367C133.968 32.0638 131.823 32.9983 129.612 32.9983C124.482 32.9983 120.45 28.926 120.45 23.0611H120.453ZM135.764 23.0611C135.764 19.1924 133.197 16.9127 130.267 16.9127C127.173 16.9127 124.729 19.3997 124.729 23.0611C124.729 26.7226 127.053 29.1696 130.267 29.1696C133.037 29.1696 135.764 27.0098 135.764 23.0611Z" fill="#020202"/>
</g>
<defs>
<linearGradient id="paint0_linear_412_691" x1="26.5903" y1="9.34415" x2="9.64231" y2="25.1937" gradientUnits="userSpaceOnUse">
<stop stop-color="#15BF84"/>
<stop offset="1" stop-color="#B850FD"/>
</linearGradient>
<linearGradient id="paint1_linear_412_691" x1="35.5" y1="0.999998" x2="3" y2="32.5" gradientUnits="userSpaceOnUse">
<stop stop-color="#15BF84"/>
<stop offset="1" stop-color="#B850FD"/>
</linearGradient>
<linearGradient id="paint2_linear_412_691" x1="31.1035" y1="5.09964" x2="6.23974" y2="28.8758" gradientUnits="userSpaceOnUse">
<stop stop-color="#15BF84"/>
<stop offset="1" stop-color="#B850FD"/>
</linearGradient>
<clipPath id="clip0_412_691">
<rect width="140" height="36.938" fill="white"/>
</clipPath>
</defs>
</svg>
